<!-- Generated by IcoMoon.io -->
<svg version="1.1" xmlns="http://www.w3.org/2000/svg" width="32" height="32" viewBox="0 0 32 32">
<title>window-close</title>
<path d="M8 8h2.063c0.508 0.023 1.023 0.258 1.375 0.625l4.563 4.563 4.625-4.563c0.531-0.461 0.891-0.609 1.375-0.625h2v2c0 0.57-0.070 1.102-0.5 1.5l-4.563 4.563 4.5 4.5c0.375 0.375 0.563 0.906 0.563 1.438v2h-2c-0.531 0-1.063-0.188-1.438-0.563l-4.563-4.563-4.563 4.563c-0.375 0.375-0.906 0.563-1.438 0.563h-2v-2c0-0.531 0.188-1.063 0.563-1.438l4.563-4.5-4.563-4.563c-0.422-0.391-0.609-0.938-0.563-1.5z"></path>
</svg>
